<?xml version="1.0" encoding="UTF-8"?>
<svg id="Calque_2" data-name="Calque 2" xmlns="http://www.w3.org/2000/svg" viewBox="0 0 128.2 83.48">
  <defs>
    <style>
      .cls-1 {
        fill: #0e2ce2;
        fill-rule: evenodd;
        stroke-width: 0px;
      }
    </style>
  </defs>
  <g id="Calque_2-2" data-name="Calque 2">
    <g id="Calque_1-2" data-name="Calque 1-2">
      <g>
        <path class="cls-1" d="m17.9,35.78v-17.89h2.98V5.96h2.98V0h-11.93v2.98h-2.98v5.96h-2.98v8.94h-2.98v11.93H0v23.85h2.98v14.9h2.98v5.96h2.98v5.96h2.98v2.98h11.93v-5.96h-2.98v-8.94h-2.98v-20.86h-2.98v-11.93h2.98Z"/>
        <path class="cls-1" d="m125.21,23.85v-11.93h-2.98v-5.96h-2.98V0h-14.9v2.98h2.98v8.94h2.98v11.93h2.98v38.75h-2.98v11.93h-2.98v5.96h-2.98v2.98h14.9v-5.96h2.98v-5.96h2.98v-8.94h2.98V23.85h-2.98Z"/>
        <path class="cls-1" d="m50.69,20.86v8.94h14.9v2.98h-2.98v5.96h-2.98v5.96h-2.98v14.9h8.94v-2.98h2.98v-11.93h2.98v-8.94h2.98v-2.98h2.98v-11.93h-26.83v.02Zm0,0v8.94h14.9v2.98h-2.98v5.96h-2.98v5.96h-2.98v14.9h8.94v-2.98h2.98v-11.93h2.98v-8.94h2.98v-2.98h2.98v-11.93h-26.83v.02Zm44.72,2.98v-5.96h-2.98v-2.98h-2.98v-2.98h-2.98v-2.98h-2.98v-2.98h-8.94v-2.98h-17.89v2.98h-8.94v2.98h-5.96v2.98h-2.98v2.98h-2.98v5.96h-2.98v8.94h-2.98v17.89h2.98v8.94h2.98v2.98h2.98v5.96h5.96v2.98h2.98v2.98h32.79v-2.98h5.96v-2.98h2.98v-2.98h2.98v-2.98h2.98v-5.96h2.98v-29.81h-2.98,0Zm-5.96,23.85h-2.98v5.96h-2.98v2.98h-2.98v2.98h-2.98v2.98h-8.94v2.98h-5.96v-2.98h-11.93v-2.98h-2.98v-2.98h-2.98v-5.96h-2.98v-26.83h2.98v-2.98h2.98v-2.98h2.98v-2.98h5.96v-2.98h14.9v2.98h8.94v2.98h2.98v5.96h2.98v5.96h2.98v17.89h0Zm-38.75-17.89h14.9v2.98h-2.98v5.96h-2.98v5.96h-2.98v14.9h8.94v-2.98h2.98v-11.93h2.98v-8.94h2.98v-2.98h2.98v-11.93h-26.83v8.96Z"/>
        <path class="cls-1" d="m50.69,20.86v8.94h14.9v2.98h-2.98v5.96h-2.98v5.96h-2.98v14.9h8.94v-2.98h2.98v-11.93h2.98v-8.94h2.98v-2.98h2.98v-11.93h-26.83v.02Z"/>
        <path class="cls-1" d="m50.69,20.86v8.94h14.9v2.98h-2.98v5.96h-2.98v5.96h-2.98v14.9h8.94v-2.98h2.98v-11.93h2.98v-8.94h2.98v-2.98h2.98v-11.93h-26.83v.02Z"/>
      </g>
    </g>
  </g>
</svg>