<?xml version="1.0" encoding="UTF-8"?>
<svg id="Calque_2" data-name="Calque 2" xmlns="http://www.w3.org/2000/svg" viewBox="0 0 483 138">
  <defs>
    <style>
      .cls-1 {
        fill: #ffffff;
        fill-rule: evenodd;
      }
    </style>
  </defs>
  <g id="Calque_1-2" data-name="Calque 1">
    <g>
      <path class="cls-1" d="m366.95,37.64v-18.82h3.14V6.27h3.14V0h-12.55v3.14h-3.14v6.27h-3.14v9.41h-3.14v12.55h-3.14v25.09h3.14v15.68h3.14v6.27h3.14v6.27h3.14v3.14h12.55v-6.27h-3.14v-9.41h-3.14v-21.95h-3.14v-12.55h3.14Z"/>
      <path class="cls-1" d="m479.86,25.09v-12.55h-3.14v-6.27h-3.14V0h-15.68v3.14h3.14v9.41h3.14v12.55h3.14v40.77h-3.14v12.55h-3.14v6.27h-3.14v3.14h15.68v-6.27h3.14v-6.27h3.14v-9.41h3.14V25.09h-3.14Z"/>
      <path class="cls-1" d="m401.45,21.95v9.41h15.68v3.14h-3.14v6.27h-3.14v6.27h-3.14v15.68h9.41v-3.14h3.14v-12.55h3.14v-9.41h3.14v-3.14h3.14v-12.55h-28.23Zm0,0v9.41h15.68v3.14h-3.14v6.27h-3.14v6.27h-3.14v15.68h9.41v-3.14h3.14v-12.55h3.14v-9.41h3.14v-3.14h3.14v-12.55h-28.23Zm47.05,3.14v-6.27h-3.14v-3.14h-3.14v-3.14h-3.14v-3.14h-3.14v-3.14h-9.41v-3.14h-18.82v3.14h-9.41v3.14h-6.27v3.14h-3.14v3.14h-3.14v6.27h-3.14v9.41h-3.14v18.82h3.14v9.41h3.14v3.14h3.14v6.27h6.27v3.14h3.14v3.14h34.5v-3.14h6.27v-3.14h3.14v-3.14h3.14v-3.14h3.14v-6.27h3.14v-31.36h-3.14Zm-6.27,25.09h-3.14v6.27h-3.14v3.14h-3.14v3.14h-3.14v3.14h-9.41v3.14h-6.27v-3.14h-12.55v-3.14h-3.14v-3.14h-3.14v-6.27h-3.14v-28.23h3.14v-3.14h3.14v-3.14h3.14v-3.14h6.27v-3.14h15.68v3.14h9.41v3.14h3.14v6.27h3.14v6.27h3.14v18.82Zm-40.77-18.82h15.68v3.14h-3.14v6.27h-3.14v6.27h-3.14v15.68h9.41v-3.14h3.14v-12.55h3.14v-9.41h3.14v-3.14h3.14v-12.55h-28.23v9.41Z"/>
      <path class="cls-1" d="m47.05,72.14v-6.27h-3.14v-6.27h-3.14v-3.14h-3.14v-6.27h-3.14v-3.14h-3.14v-3.14h3.14v-3.14h3.14v-6.27h3.14v-3.14h3.14v-3.14h3.14v-3.14h-15.68v3.14h-3.14v3.14h-3.14v3.14h-3.14v3.14h-3.14v3.14h-3.14V6.27H0v69h15.68v-15.68h3.14v-3.14h6.27v6.27h3.14v6.27h3.14v6.27h18.82v-3.14h-3.14Z"/>
      <path class="cls-1" d="m134.86,37.64v-12.55h-9.41v-12.55h-15.68v12.55h-6.27v12.55h6.27v28.23h3.14v6.27h3.14v3.14h18.82v-9.41h-6.27v-3.14h-3.14v-25.09h9.41Z"/>
      <path class="cls-1" d="m401.45,21.95v9.41h15.68v3.14h-3.14v6.27h-3.14v6.27h-3.14v15.68h9.41v-3.14h3.14v-12.55h3.14v-9.41h3.14v-3.14h3.14v-12.55h-28.23Z"/>
      <path class="cls-1" d="m401.45,21.95v9.41h15.68v3.14h-3.14v6.27h-3.14v6.27h-3.14v15.68h9.41v-3.14h3.14v-12.55h3.14v-9.41h3.14v-3.14h3.14v-12.55h-28.23Z"/>
      <path class="cls-1" d="m97.23,65.86v-31.36h-3.14v-6.27h-3.14v-3.14h-28.23v3.14h-6.27v3.14h-3.14v9.41h12.55v-3.14h3.14v-3.14h12.55v9.41h-12.55v3.14h-9.41v3.14h-6.27v6.27h-3.14v12.55h3.14v3.14h3.14v3.14h21.95v-3.14h6.27v3.14h15.68v-9.41h-3.14Zm-15.68-3.14h-3.14v3.14h-9.41v-3.14h-3.14v-6.27h3.14v-3.14h9.41v-3.14h3.14v12.55Z"/>
      <path class="cls-1" d="m188.18,53.32v-15.68h-3.14v-6.27h-3.14v-3.14h-3.14v-3.14h-28.23v3.14h-3.14v3.14h-3.14v3.14h-3.14v6.27h-3.14v18.82h3.14v6.27h3.14v3.14h3.14v3.14h3.14v3.14h28.23v-3.14h3.14v-3.14h3.14v-3.14h3.14v-6.27h-15.68v3.14h-3.14v3.14h-9.41v-3.14h-3.14v-3.14h-3.14v-6.27h34.5Zm-34.5-12.55h3.14v-3.14h3.14v-3.14h9.41v3.14h3.14v6.27h-18.82v-3.14Z"/>
      <path class="cls-1" d="m269.73,31.36v-3.14h-3.14v-3.14h-18.82v3.14h-6.27v3.14h-3.14v-3.14h-3.14v-3.14h-18.82v3.14h-6.27v-3.14h-12.55v50.18h12.55v-28.23h3.14v-9.41h12.55v37.64h15.68v-34.5h3.14v-3.14h12.55v37.64h15.68V31.36h-3.14Z"/>
      <path class="cls-1" d="m338.73,50.18v-3.14h-3.14v-3.14h-3.14v-3.14h-3.14v-3.14h-3.14v-3.14h-3.14v-3.14h-3.14v-3.14h-3.14v-3.14h-6.27v3.14h-3.14v3.14h-6.27v3.14h-3.14v3.14h-3.14v3.14h-3.14v3.14h-3.14v3.14h-3.14v3.14h-3.14v3.14h3.14v3.14h3.14v3.14h3.14v-3.14h3.14v-3.14h3.14v-3.14h3.14v-3.14h3.14v-3.14h3.14v21.95h-28.23v9.41h40.77v-28.23h3.14v3.14h6.27v3.14h3.14v3.14h6.27v-3.14h3.14v-3.14h-3.14Z"/>
      <path class="cls-1" d="m21.95,119.18v-6.27h3.14v-3.14h3.14v-6.27h3.14v-6.27h-15.68v3.14h-3.14v3.14h-3.14v3.14h-3.14v6.27h-3.14v6.27h15.68v6.27h-3.14v3.14h-3.14v6.27h-3.14v3.14h18.82v-3.14h3.14v-3.14h3.14v-6.27h3.14v-3.14h3.14v-3.14h-18.82Z"/>
      <path class="cls-1" d="m62.73,119.18v-6.27h3.14v-6.27h3.14v-3.14h3.14v-6.27h-18.82v3.14h-3.14v6.27h-3.14v3.14h-3.14v6.27h-3.14v3.14h18.82v3.14h-3.14v6.27h-3.14v3.14h-3.14v6.27h18.82v-3.14h3.14v-6.27h3.14v-3.14h3.14v-6.27h-15.68Z"/>
      <path class="cls-1" d="m100.36,119.18v-3.14h3.14v-6.27h3.14v-3.14h3.14v-9.41h-15.68v3.14h-3.14v3.14h-3.14v6.27h-3.14v3.14h-3.14v6.27h15.68v6.27h-3.14v6.27h-3.14v3.14h-3.14v3.14h21.95v-6.27h3.14v-6.27h3.14v-3.14h3.14v-3.14h-18.82Z"/>
      <path class="cls-1" d="m141.14,119.18v-6.27h3.14v-6.27h3.14v-3.14h3.14v-6.27h-18.82v3.14h-3.14v6.27h-3.14v6.27h-3.14v3.14h-3.14v3.14h18.82v3.14h-3.14v6.27h-3.14v6.27h-3.14v3.14h18.82v-3.14h3.14v-6.27h3.14v-3.14h3.14v-6.27h-15.68Z"/>
      <path class="cls-1" d="m172.5,97.23v3.14h-3.14v3.14h-3.14v6.27h-3.14v6.27h-3.14v3.14h18.82v-3.14h3.14v-6.27h3.14v-3.14h3.14v-9.41h-15.68Z"/>
      <path class="cls-1" d="m219.55,119.18v-6.27h3.14v-3.14h3.14v-6.27h3.14v-6.27h-15.68v3.14h-3.14v3.14h-3.14v3.14h-3.14v6.27h-3.14v6.27h15.68v6.27h-3.14v3.14h-3.14v6.27h-3.14v3.14h18.82v-3.14h3.14v-3.14h3.14v-6.27h3.14v-6.27h-15.68Z"/>
      <path class="cls-1" d="m301.09,100.36v6.27h6.27v-6.27h-6.27Z"/>
      <path class="cls-1" d="m357.55,116.05v-6.27h-12.55v3.14h-3.14v-12.55h-9.41v37.64h9.41v-18.82h3.14v-3.14h6.27v21.95h9.41v-21.95h-3.14Z"/>
      <path class="cls-1" d="m376.36,100.36v37.64h6.27v-37.64h-6.27Z"/>
      <path class="cls-1" d="m329.32,116.05v-6.27h-3.14v-6.27h-9.41v6.27h-3.14v6.27h3.14v18.82h3.14v3.14h9.41v-6.27h-3.14v-15.68h3.14Z"/>
      <path class="cls-1" d="m288.55,109.77v9.41h-3.14v3.14h-3.14v-12.55h-9.41v6.27h-3.14v6.27h-3.14v-9.41h-3.14v-3.14h-6.27v12.55h3.14v9.41h3.14v6.27h9.41v-9.41h3.14v-6.27h3.14v9.41h3.14v6.27h9.41v-12.55h3.14v-9.41h3.14v-6.27h-9.41Z"/>
      <path class="cls-1" d="m301.09,109.77v28.23h6.27v-28.23h-6.27Z"/>
      <path class="cls-1" d="m414,119.18v-6.27h-3.14v-3.14h-18.82v3.14h-3.14v6.27h-3.14v9.41h3.14v6.27h6.27v3.14h12.55v-3.14h6.27v-6.27h3.14v-9.41h-3.14Zm-6.27,9.41h-3.14v3.14h-6.27v-3.14h-3.14v-9.41h3.14v-3.14h6.27v3.14h3.14v9.41Z"/>
      <path class="cls-1" d="m435.95,109.77v9.41h-3.14v6.27h-3.14v-6.27h-3.14v-9.41h-9.41v6.27h3.14v9.41h3.14v9.41h3.14v3.14h9.41v-6.27h3.14v-9.41h3.14v-9.41h3.14v-3.14h-9.41Z"/>
      <path class="cls-1" d="m476.73,112.91v-3.14h-6.27v3.14h-6.27v-3.14h-9.41v3.14h-3.14v12.55h3.14v6.27h3.14v3.14h6.27v3.14h3.14v-3.14h6.27v-3.14h3.14v-6.27h3.14v-12.55h-3.14Z"/>
      <path class="cls-1" d="m178.77,119.18v3.14h-3.14v3.14h-3.14v6.27h-3.14v3.14h-3.14v3.14h21.95v-6.27h3.14v-3.14h3.14v-6.27h3.14v-3.14h-18.82Z"/>
    </g>
  </g>
</svg>